<svg width="34" height="38" viewBox="0 0 34 38" fill="none" xmlns="http://www.w3.org/2000/svg">
<path d="M8.43199 10.3489C8.43199 10.9036 8.28799 11.4263 7.99999 11.9169C7.72265 12.3969 7.30665 12.7969 6.75199 13.1169C6.20799 13.4263 5.56265 13.6076 4.81599 13.6609V14.9569H3.79199V13.6449C2.72532 13.5489 1.86665 13.2289 1.21599 12.6849C0.565319 12.1303 0.229319 11.3836 0.207985 10.4449H2.60799C2.67199 11.2129 3.06665 11.6769 3.79199 11.8369V8.78094C3.02399 8.58894 2.40532 8.39694 1.93599 8.20494C1.46665 8.01294 1.06132 7.70361 0.719985 7.27694C0.378652 6.85027 0.207985 6.26894 0.207985 5.53294C0.207985 4.60494 0.538652 3.84761 1.19999 3.26094C1.87199 2.67427 2.73599 2.33827 3.79199 2.25294V0.956941H4.81599V2.25294C5.83999 2.33827 6.65599 2.64761 7.26399 3.18094C7.88265 3.71427 8.22932 4.45027 8.30399 5.38894H5.88799C5.85599 5.07961 5.74399 4.81294 5.55199 4.58894C5.37065 4.35427 5.12532 4.18894 4.81599 4.09294V7.11694C5.61599 7.31961 6.24532 7.51694 6.70399 7.70894C7.17332 7.89027 7.57865 8.19427 7.91999 8.62094C8.26132 9.03694 8.43199 9.61294 8.43199 10.3489ZM2.54399 5.42094C2.54399 5.77294 2.65065 6.06094 2.86399 6.28494C3.07732 6.49827 3.38665 6.67427 3.79199 6.81294V4.04494C3.40799 4.09827 3.10399 4.24227 2.87999 4.47694C2.65599 4.71161 2.54399 5.02627 2.54399 5.42094ZM4.81599 11.8689C5.22132 11.7943 5.53599 11.6289 5.75999 11.3729C5.99465 11.1169 6.11199 10.8076 6.11199 10.4449C6.11199 10.0929 5.99999 9.81027 5.77599 9.59694C5.55199 9.38361 5.23199 9.20761 4.81599 9.06894V11.8689ZM10.6767 7.58094C10.6767 5.73561 11.0074 4.29027 11.6687 3.24494C12.3407 2.19961 13.4501 1.67694 14.9967 1.67694C16.5434 1.67694 17.6474 2.19961 18.3087 3.24494C18.9807 4.29027 19.3167 5.73561 19.3167 7.58094C19.3167 9.43694 18.9807 10.8929 18.3087 11.9489C17.6474 13.0049 16.5434 13.5329 14.9967 13.5329C13.4501 13.5329 12.3407 13.0049 11.6687 11.9489C11.0074 10.8929 10.6767 9.43694 10.6767 7.58094ZM17.1087 7.58094C17.1087 6.79161 17.0554 6.13027 16.9487 5.59694C16.8527 5.05294 16.6501 4.61027 16.3407 4.26894C16.0421 3.92761 15.5941 3.75694 14.9967 3.75694C14.3994 3.75694 13.9461 3.92761 13.6367 4.26894C13.3381 4.61027 13.1354 5.05294 13.0287 5.59694C12.9327 6.13027 12.8847 6.79161 12.8847 7.58094C12.8847 8.39161 12.9327 9.07427 13.0287 9.62894C13.1247 10.1729 13.3274 10.6156 13.6367 10.9569C13.9461 11.2876 14.3994 11.4529 14.9967 11.4529C15.5941 11.4529 16.0474 11.2876 16.3567 10.9569C16.6661 10.6156 16.8687 10.1729 16.9647 9.62894C17.0607 9.07427 17.1087 8.39161 17.1087 7.58094ZM22.2685 13.6769C21.8632 13.6769 21.5272 13.5543 21.2605 13.3089C21.0045 13.0529 20.8765 12.7383 20.8765 12.3649C20.8765 11.9916 21.0045 11.6823 21.2605 11.4369C21.5272 11.1809 21.8632 11.0529 22.2685 11.0529C22.6632 11.0529 22.9885 11.1809 23.2445 11.4369C23.5005 11.6823 23.6285 11.9916 23.6285 12.3649C23.6285 12.7383 23.5005 13.0529 23.2445 13.3089C22.9885 13.5543 22.6632 13.6769 22.2685 13.6769ZM25.1767 7.58094C25.1767 5.73561 25.5074 4.29027 26.1687 3.24494C26.8407 2.19961 27.9501 1.67694 29.4967 1.67694C31.0434 1.67694 32.1474 2.19961 32.8087 3.24494C33.4807 4.29027 33.8167 5.73561 33.8167 7.58094C33.8167 9.43694 33.4807 10.8929 32.8087 11.9489C32.1474 13.0049 31.0434 13.5329 29.4967 13.5329C27.9501 13.5329 26.8407 13.0049 26.1687 11.9489C25.5074 10.8929 25.1767 9.43694 25.1767 7.58094ZM31.6087 7.58094C31.6087 6.79161 31.5554 6.13027 31.4487 5.59694C31.3527 5.05294 31.1501 4.61027 30.8407 4.26894C30.5421 3.92761 30.0941 3.75694 29.4967 3.75694C28.8994 3.75694 28.4461 3.92761 28.1367 4.26894C27.8381 4.61027 27.6354 5.05294 27.5287 5.59694C27.4327 6.13027 27.3847 6.79161 27.3847 7.58094C27.3847 8.39161 27.4327 9.07427 27.5287 9.62894C27.6247 10.1729 27.8274 10.6156 28.1367 10.9569C28.4461 11.2876 28.8994 11.4529 29.4967 11.4529C30.0941 11.4529 30.5474 11.2876 30.8567 10.9569C31.1661 10.6156 31.3687 10.1729 31.4647 9.62894C31.5607 9.07427 31.6087 8.39161 31.6087 7.58094ZM0.207985 31.5809C0.207985 29.7356 0.538652 28.2903 1.19999 27.2449C1.87199 26.1996 2.98132 25.6769 4.52799 25.6769C6.07465 25.6769 7.17865 26.1996 7.83999 27.2449C8.51199 28.2903 8.84799 29.7356 8.84799 31.5809C8.84799 33.4369 8.51199 34.8929 7.83999 35.9489C7.17865 37.0049 6.07465 37.5329 4.52799 37.5329C2.98132 37.5329 1.87199 37.0049 1.19999 35.9489C0.538652 34.8929 0.207985 33.4369 0.207985 31.5809ZM6.63999 31.5809C6.63999 30.7916 6.58665 30.1303 6.47999 29.5969C6.38399 29.0529 6.18132 28.6103 5.87199 28.2689C5.57332 27.9276 5.12532 27.7569 4.52799 27.7569C3.93065 27.7569 3.47732 27.9276 3.16799 28.2689C2.86932 28.6103 2.66665 29.0529 2.55999 29.5969C2.46399 30.1303 2.41599 30.7916 2.41599 31.5809C2.41599 32.3916 2.46399 33.0743 2.55999 33.6289C2.65599 34.1729 2.85865 34.6156 3.16799 34.9569C3.47732 35.2876 3.93065 35.4529 4.52799 35.4529C5.12532 35.4529 5.57865 35.2876 5.88799 34.9569C6.19732 34.6156 6.39999 34.1729 6.49599 33.6289C6.59199 33.0743 6.63999 32.3916 6.63999 31.5809Z" fill="#0B3954"/>
</svg>
