<svg width="80" height="81" viewBox="0 0 80 81" fill="none" xmlns="http://www.w3.org/2000/svg">
<g clip-path="url(#clip0_1_1319)">
<g clip-path="url(#clip1_1_1319)">
<path fill-rule="evenodd" clip-rule="evenodd" d="M0.964235 -15.875C-2.34956 -15.875 -5.03576 -13.1887 -5.03576 -9.875V75.563C-5.03576 78.877 -2.34956 81.563 0.964235 81.563H35.9992V-15.875H0.964235ZM43.9992 -15.875V81.563H79.0338C82.3478 81.563 85.0338 78.877 85.0338 75.563V-9.875C85.0338 -13.1887 82.3478 -15.875 79.0338 -15.875H43.9992ZM-13.0358 -9.875C-13.0358 -17.607 -6.76776 -23.875 0.964235 -23.875H79.0338C86.7658 -23.875 93.0338 -17.607 93.0338 -9.875V75.563C93.0338 83.295 86.7658 89.563 79.0338 89.563H0.964235C-6.76776 89.563 -13.0358 83.295 -13.0358 75.563V-9.875Z" fill="#0B3954"/>
<path fill-rule="evenodd" clip-rule="evenodd" d="M11.1678 24.9639C13.3769 24.9639 15.1678 26.7547 15.1678 28.9639V36.7238C15.1678 38.9329 13.3769 40.7238 11.1678 40.7238C8.95865 40.7238 7.16785 38.9329 7.16785 36.7238V28.9639C7.16785 26.7547 8.95865 24.9639 11.1678 24.9639Z" fill="#0B3954"/>
<path fill-rule="evenodd" clip-rule="evenodd" d="M67.8379 24.9639C70.0469 24.9639 71.8379 26.7547 71.8379 28.9639V36.7238C71.8379 38.9329 70.0469 40.7238 67.8379 40.7238C65.6289 40.7238 63.8379 38.9329 63.8379 36.7238V28.9639C63.8379 26.7547 65.6289 24.9639 67.8379 24.9639Z" fill="#0B3954"/>
</g>
</g>
<defs>
<clipPath id="clip0_1_1319">
<rect width="80" height="80" fill="white" transform="translate(-0.00012207 0.125)"/>
</clipPath>
<clipPath id="clip1_1_1319">
<rect width="80" height="80" fill="white" transform="translate(-0.00012207 0.125)"/>
</clipPath>
</defs>
</svg>
