<svg width="81" height="81" viewBox="0 0 81 81" fill="none" xmlns="http://www.w3.org/2000/svg">
<g clip-path="url(#clip0_1_1260)">
<g clip-path="url(#clip1_1_1260)">
<path fill-rule="evenodd" clip-rule="evenodd" d="M6.20917 42.9946C13.8603 48.2605 24.3043 54.1992 40.6672 54.1992C57.0302 54.1992 67.4738 48.2605 75.1258 42.9946C76.3178 42.1736 77.3628 41.4265 78.3838 40.6961C79.0988 40.1851 79.8018 39.6823 80.5358 39.1681C82.1968 38.0052 83.8818 36.8834 85.5348 36.0507C87.1808 35.221 89.0828 34.5271 91.1528 34.5091C93.3538 34.49 95.3778 35.2358 97.1648 36.6596C101.96 40.4795 102.693 46.8351 101.494 52.7488C100.265 58.8121 96.8678 65.514 91.7688 71.705C81.5288 84.139 63.8648 95.185 40.6672 95.185C17.4694 95.185 -0.194332 84.139 -10.4343 71.705C-15.5335 65.514 -18.9303 58.8121 -20.1597 52.7488C-21.3588 46.8351 -20.6257 40.4795 -15.8304 36.6596C-14.043 35.2358 -12.0191 34.49 -9.81863 34.5091C-7.74793 34.5271 -5.84663 35.221 -4.20003 36.0507C-2.54763 36.8834 -0.862431 38.0052 0.79837 39.1681C1.53277 39.6823 2.23587 40.1851 2.95027 40.6961C3.97167 41.4265 5.01627 42.1736 6.20917 42.9946ZM-9.88813 42.5088C-10.1022 42.507 -10.3701 42.538 -10.8458 42.9169C-12.2025 43.9976 -13.2605 46.5169 -12.3192 51.1591C-11.4083 55.6516 -8.73343 61.187 -4.25903 66.619C4.64807 77.434 20.139 87.185 40.6672 87.185C61.1958 87.185 76.6868 77.434 85.5938 66.619C90.0678 61.187 92.7428 55.6516 93.6538 51.1591C94.5948 46.5169 93.5368 43.9976 92.1808 42.9169C91.7048 42.538 91.4368 42.507 91.2228 42.5088C90.8788 42.5118 90.2428 42.6367 89.1348 43.1949C88.0328 43.7503 86.7458 44.5858 85.1248 45.7213C84.5388 46.1313 83.8778 46.6037 83.1718 47.108C82.0708 47.8942 80.8618 48.7581 79.6608 49.5846C71.3178 55.3269 59.2851 62.199 40.6672 62.199C22.0494 62.199 10.0169 55.3269 1.67357 49.5846C0.472572 48.7581 -0.736731 47.8942 -1.83733 47.108C-2.54343 46.6037 -3.20473 46.1313 -3.79023 45.7213C-5.41183 44.5858 -6.69803 43.7503 -7.80013 43.1949C-8.90793 42.6367 -9.54423 42.5118 -9.88813 42.5088Z" fill="#0B3954"/>
<path fill-rule="evenodd" clip-rule="evenodd" d="M1.32575 -0.526699C0.0683498 1.6487 -0.0697498 3.2215 0.09445 4.0279C1.41595 10.515 7.95245 35.7553 11.0901 47.6886L3.35305 49.7229C0.251449 37.9266 -6.36565 12.3936 -7.74455 5.6248C-8.42405 2.2888 -7.46905 -1.2974 -5.60045 -4.5302C-3.69935 -7.8193 -0.68725 -11.0572 3.34355 -13.9C11.4279 -19.6017 23.8195 -23.875 40.668 -23.875C57.5166 -23.875 69.9077 -19.6017 77.9927 -13.9C82.0237 -11.0572 85.0357 -7.8193 86.9367 -4.5302C88.8057 -1.2974 89.7607 2.2888 89.0807 5.6248C87.7018 12.3936 81.0847 37.9266 77.9827 49.7229L70.2458 47.6886C73.3838 35.7553 79.9197 10.515 81.2417 4.0279C81.4057 3.2215 81.2677 1.6487 80.0107 -0.526699C78.7858 -2.6458 76.6387 -5.0654 73.3817 -7.3623C66.8907 -11.9401 56.1921 -15.875 40.668 -15.875C25.1441 -15.875 14.4453 -11.9401 7.95435 -7.3623C4.69745 -5.0654 2.55065 -2.6458 1.32575 -0.526699Z" fill="#0B3954"/>
</g>
</g>
<defs>
<clipPath id="clip0_1_1260">
<rect width="80" height="80" fill="white" transform="translate(0.666748 0.125)"/>
</clipPath>
<clipPath id="clip1_1_1260">
<rect width="80" height="80" fill="white" transform="translate(0.666748 0.125)"/>
</clipPath>
</defs>
</svg>
