<svg width="81" height="81" viewBox="0 0 81 81" fill="none" xmlns="http://www.w3.org/2000/svg">
<g clip-path="url(#clip0_1_1307)">
<path fill-rule="evenodd" clip-rule="evenodd" d="M-9.33337 5.5874C-12.6471 5.5874 -15.3334 8.2737 -15.3334 11.5874V78.665H-23.3334V11.5874C-23.3334 3.8554 -17.0654 -2.4126 -9.33337 -2.4126H90.6666C98.3986 -2.4126 104.667 3.8554 104.667 11.5874V79.048H49.3315V5.5874H-9.33337ZM57.3315 5.5874V25.9619H96.6666V11.5874C96.6666 8.2737 93.9806 5.5874 90.6666 5.5874H57.3315ZM96.6666 33.9619H57.3315V71.048H96.6666V33.9619Z" fill="#0B3954"/>
<path d="M81.0476 43.8727C81.0476 45.9424 79.3696 47.6203 77.2996 47.6203C75.2306 47.6203 73.5526 45.9424 73.5526 43.8727C73.5526 41.8029 75.2306 40.125 77.2996 40.125C79.3696 40.125 81.0476 41.8029 81.0476 43.8727Z" fill="#0B3954"/>
</g>
<defs>
<clipPath id="clip0_1_1307">
<rect width="80" height="80" fill="white" transform="translate(0.666626 0.125)"/>
</clipPath>
</defs>
</svg>
