<svg width="81" height="81" viewBox="0 0 81 81" fill="none" xmlns="http://www.w3.org/2000/svg">
<g clip-path="url(#clip0_1_1291)">
<g clip-path="url(#clip1_1_1291)">
<path fill-rule="evenodd" clip-rule="evenodd" d="M-9.66653 7.39404C-12.9803 7.39404 -15.6665 10.0803 -15.6665 13.394L-15.6666 79.593H-23.6666L-23.6665 13.394C-23.6665 5.66204 -17.3985 -0.605957 -9.66653 -0.605957H90.3334C98.0654 -0.605957 104.333 5.66214 104.333 13.3941V79.593H96.3334V13.394C96.3334 10.0803 93.6474 7.39404 90.3334 7.39404H-9.66653Z" fill="#0B3954"/>
<path fill-rule="evenodd" clip-rule="evenodd" d="M-10.3169 7.39404C-13.2714 7.39404 -15.6666 9.78914 -15.6666 12.7436C-15.6666 15.6982 -13.2715 18.0934 -10.3169 18.0934H90.9834C93.9384 18.0934 96.3334 15.6983 96.3334 12.7438C96.3334 9.78924 93.9384 7.39404 90.9834 7.39404H-10.3169ZM-23.6666 12.7435C-23.6665 5.37084 -17.6897 -0.605957 -10.3169 -0.605957H90.9834C98.3564 -0.605957 104.333 5.37104 104.333 12.7438C104.333 20.1166 98.3564 26.0934 90.9834 26.0934H-10.3169C-17.6898 26.0934 -23.6667 20.1164 -23.6666 12.7435Z" fill="#0B3954"/>
<path fill-rule="evenodd" clip-rule="evenodd" d="M-4.11975 79.593V24.5928H3.38025V79.593H-4.11975Z" fill="#0B3954"/>
<path fill-rule="evenodd" clip-rule="evenodd" d="M75.8804 79.593V24.5928H83.8804V79.593H75.8804Z" fill="#0B3954"/>
</g>
</g>
<defs>
<clipPath id="clip0_1_1291">
<rect width="80" height="80" fill="white" transform="translate(0.333374 0.125)"/>
</clipPath>
<clipPath id="clip1_1_1291">
<rect width="80" height="80" fill="white" transform="translate(0.333374 0.125)"/>
</clipPath>
</defs>
</svg>
