<svg width="80" height="81" viewBox="0 0 80 81" fill="none" xmlns="http://www.w3.org/2000/svg">
<g clip-path="url(#clip0_1_1275)">
<g clip-path="url(#clip1_1_1275)">
<path fill-rule="evenodd" clip-rule="evenodd" d="M0 40.8877C-8.8366 40.8877 -16 48.0511 -16 56.8877V66.56H96V56.8877C96 48.0511 88.837 40.8877 80 40.8877H0ZM-24 56.8877C-24 43.6329 -13.2548 32.8877 0 32.8877H80C93.255 32.8877 104 43.6329 104 56.8877V74.56H-24V56.8877Z" fill="#0B3954"/>
<path fill-rule="evenodd" clip-rule="evenodd" d="M10.1211 26.3652C10.1211 18.6332 16.3891 12.3652 24.1211 12.3652H55.8786C63.611 12.3652 69.879 18.6332 69.879 26.3652V33.4109H61.879V26.3652C61.879 23.0515 59.1923 20.3652 55.8786 20.3652H24.1211C20.8074 20.3652 18.1211 23.0515 18.1211 26.3652V33.4109H10.1211V26.3652Z" fill="#0B3954"/>
<path fill-rule="evenodd" clip-rule="evenodd" d="M2.08008 -1.14355C-1.23362 -1.14355 -3.91992 1.54275 -3.91992 4.85645V40.3878H-11.9199V4.85645C-11.9199 -2.87555 -5.65192 -9.14355 2.08008 -9.14355H77.919C85.651 -9.14355 91.919 -2.87545 91.919 4.85645V38.9661H83.919V4.85645C83.919 1.54275 81.233 -1.14355 77.919 -1.14355H2.08008Z" fill="#0B3954"/>
</g>
</g>
<defs>
<clipPath id="clip0_1_1275">
<rect width="80" height="80" fill="white" transform="translate(0 0.125)"/>
</clipPath>
<clipPath id="clip1_1_1275">
<rect width="80" height="80" fill="white" transform="translate(0 0.125)"/>
</clipPath>
</defs>
</svg>
